<?xml version="1.0" encoding="UTF-8"?>
<svg xmlns="http://www.w3.org/2000/svg" viewBox="0 0 1080 1920">
  <defs>
    <style>
      .cls-1 {
        fill: #e2af65;
      }

      .cls-1, .cls-2, .cls-3, .cls-4, .cls-5, .cls-6, .cls-7, .cls-8, .cls-9, .cls-10, .cls-11, .cls-12 {
        stroke-width: 0px;
      }

      .cls-2 {
        fill: #221115;
      }

      .cls-3 {
        fill: #694020;
      }

      .cls-4 {
        fill: #422c20;
      }

      .cls-5 {
        fill: #5b735b;
      }

      .cls-6 {
        fill: #bcc7c1;
      }

      .cls-7 {
        fill: #d8b99a;
      }

      .cls-8 {
        fill: #dbdedb;
      }

      .cls-9 {
        fill: #4c5d46;
      }

      .cls-10 {
        fill: #5e2c25;
      }

      .cls-11 {
        fill: #8f8886;
      }

      .cls-12 {
        fill: #7f4f39;
      }
    </style>
  </defs>
  <g id="fondocircular">
    <g>
      <path class="cls-12" d="M986.57,576.4c-24.41-57.71-59.36-109.54-103.88-154.06-44.52-44.52-96.35-79.47-154.06-103.88-59.73-25.26-123.2-38.08-188.64-38.08s-128.91,12.81-188.64,38.08c-57.71,24.41-109.54,59.36-154.06,103.88-44.52,44.52-79.47,96.35-103.88,154.06-25.26,59.73-38.08,123.2-38.08,188.64s12.81,128.91,38.08,188.64c24.41,57.71,59.36,109.54,103.88,154.06,44.52,44.52,96.35,79.47,154.06,103.88,59.73,25.26,123.2,38.07,188.64,38.07s128.91-12.81,188.64-38.07c57.71-24.41,109.54-59.36,154.06-103.88,44.52-44.52,79.47-96.35,103.88-154.06,25.26-59.73,38.07-123.2,38.07-188.64s-12.81-128.91-38.07-188.64ZM973.51,948.56c-23.65,55.92-57.52,106.15-100.67,149.3-43.15,43.14-93.38,77.01-149.3,100.67-57.87,24.48-119.38,36.89-182.79,36.89s-124.92-12.41-182.8-36.89c-55.92-23.65-106.15-57.52-149.3-100.67-43.15-43.14-77.01-93.38-100.67-149.3-24.48-57.87-36.89-119.37-36.89-182.8s12.41-124.92,36.89-182.8c23.65-55.92,57.52-106.15,100.67-149.3,43.15-43.15,93.38-77.01,149.3-100.67,57.87-24.48,119.38-36.89,182.8-36.89s124.92,12.41,182.79,36.89c55.92,23.65,106.15,57.52,149.3,100.67,43.14,43.14,77.01,93.37,100.67,149.3,24.48,57.88,36.89,119.38,36.89,182.8s-12.41,124.92-36.89,182.8Z"/>
      <g>
        <path class="cls-10" d="M989.17,574.88c-37.84-89.05-102.15-165.85-183.22-218.71-85.4-55.68-187.49-83.02-289.28-78.24-99.67,4.68-196.66,40.46-275.46,101.66-77.24,60-135.55,142.87-165.55,235.98-31.62,98.11-31.06,206.21,1.66,303.96,30.95,92.45,89.73,174.19,167.12,233.42,80.03,61.25,178.71,96.2,279.4,99.46,101.09,3.28,202.05-25.1,286.24-81.24,80.35-53.58,143.82-130.79,180.77-220,39.5-95.38,47.39-203.03,22.69-303.25-6.09-24.71-14.19-48.88-24.06-72.33-1.48-3.51-7.28-1.96-5.79,1.6,39.79,94.57,48.71,200.96,24.69,300.78-22.72,94.43-74.4,180.47-146.52,245.42-73.28,66-166.77,108.54-264.77,119.99-100.49,11.74-203.41-8.24-291.79-57.61-82.95-46.33-151.42-117.41-194.58-202.05-46.27-90.72-62.49-195.52-46.23-296.05,15.61-96.5,61.16-187,129.09-257.26,67.72-70.04,156.05-118.62,251.64-137.74,100.16-20.04,206.07-7.47,298.6,35.81,86.34,40.38,159.91,106.63,209.06,188.3,11.81,19.61,22.16,40.07,31.11,61.13,1.51,3.54,6.68.49,5.18-3.03Z"/>
        <path class="cls-10" d="M970.92,947.05c-36.18,85.13-97.32,158.71-174.77,209.4-81.36,53.25-178.31,79.59-275.41,75.55-96.37-4-190.58-38.49-266.62-97.88-73.46-57.38-129.05-136.33-157.65-225.09-30.34-94.15-29.79-197.61,1.61-291.42,29.63-88.52,86.2-167.16,160.51-223.63,76.52-58.15,170.43-91.49,266.49-94.6,97.02-3.15,193.59,24.05,274.4,77.92,76.97,51.3,138.03,125.68,173.13,211.27,37.67,91.87,45,195.33,20.7,291.62-5.82,23.08-13.46,45.65-22.69,67.59-1.5,3.55,4.31,5.11,5.79,1.6,39.07-92.84,47.47-197.52,23.72-295.44-22.53-92.88-73.81-177.65-145.11-241.21-71.56-63.79-162.05-104.72-257.24-116.19s-200.46,7.83-287.44,56.43c-81.2,45.36-148.43,115.07-190.69,197.93-45.36,88.93-61.23,191.17-45.66,289.74s60,184.42,126.88,253.59c66.27,68.53,152.9,116.3,246.45,135,98.19,19.63,201.61,7.52,292.45-34.61,84.44-39.16,156.54-103.74,204.94-183.23,11.95-19.63,22.4-40.14,31.39-61.29,1.49-3.51-3.67-6.57-5.18-3.03Z"/>
      </g>
    </g>
    <g>
      <path class="cls-11" d="M540.75,1235.42c-63.42,0-124.92-12.41-182.8-36.89-55.92-23.65-106.15-57.52-149.3-100.67-43.15-43.14-77.01-93.38-100.67-149.3-24.48-57.87-36.89-119.37-36.89-182.8s12.41-124.92,36.89-182.8c23.65-55.92,57.52-106.15,100.67-149.3,43.15-43.15,93.38-77.01,149.3-100.67,57.87-24.48,119.38-36.89,182.8-36.89s124.92,12.41,182.79,36.89c55.92,23.65,106.15,57.52,149.3,100.67,43.14,43.14,77.01,93.37,100.67,149.3,24.48,57.88,36.89,119.38,36.89,182.8s-12.41,124.92-36.89,182.8c-23.65,55.92-57.52,106.15-100.67,149.3-43.15,43.14-93.38,77.01-149.3,100.67-57.87,24.48-119.38,36.89-182.79,36.89Z"/>
      <path class="cls-2" d="M540.75,1232.42c-96.66-.17-191.78-30.21-270.57-86.33-75.69-53.92-134.54-130.45-166.94-217.56-34.49-92.73-38.47-196.11-11.26-291.24,25.76-90.05,78.97-170.93,150.92-230.81,73.59-61.24,165.95-98.7,261.42-105.97,97.32-7.41,195.59,15.7,279,66.49,78.67,47.9,142.34,119.24,181.08,202.79,41.76,90.08,53.5,193.11,33.5,290.35-19.02,92.46-66.54,177.73-134.69,242.96-68.44,65.51-156.42,109.18-250.05,123.79-23.95,3.74-48.17,5.49-72.41,5.53-3.86,0-3.87,6.01,0,6,98.17-.18,195.05-30.79,274.9-88.08,76.43-54.84,135.62-132.04,168.4-220.22,34.93-93.95,38.77-198.94,11.02-295.25-26.26-91.17-80.36-173.24-153.46-233.66-74.69-61.73-167.8-99.35-264.43-106.71-98.57-7.51-198.33,16.14-282.71,67.72-79.64,48.69-144.23,121.16-183.22,205.98-41.84,91.01-53.6,194.53-33.6,292.68,19.15,93.98,67.64,180.85,136.99,247.01,69.25,66.07,158.31,110.31,252.96,124.91,24.21,3.73,48.66,5.57,73.16,5.62,3.86,0,3.87-5.99,0-6Z"/>
    </g>
  </g>
  <g id="fondo">
    <g>
      <g>
        <path class="cls-5" d="M994.04,1001.36c-70.39,134.86-199.14,234.42-352.74,265.19v19.45h-202v-19.45c-152.98-30.64-281.3-129.51-351.88-263.53-7.73-14.69-29.98-9.17-29.98,7.43v833.64c0,8.79,7.13,15.92,15.92,15.92h934.78c8.79,0,15.92-7.13,15.92-15.92v-835.35c0-16.64-22.32-22.12-30.02-7.37Z"/>
        <path class="cls-4" d="M991.45,999.85c-27.26,52.05-63.32,99.22-106.5,139.07-43.4,40.04-93.82,72.55-148.31,95.34-30.98,12.96-63.22,22.76-96.13,29.4-1.28.26-2.2,1.64-2.2,2.89v19.45l3-3h-202l3,3v-19.45c0-1.24-.92-2.64-2.2-2.89-52.55-10.61-103.27-29.39-149.93-55.81-46-26.04-87.81-59.24-123.67-98.08-17.9-19.39-34.3-40.16-48.98-62.1-7.31-10.92-14.19-22.11-20.64-33.56-4.92-8.74-8.62-20.12-19.73-22.25-12.26-2.35-22.5,7.08-22.72,19.12-.04,2.44,0,4.89,0,7.33,0,12.64,0,25.27,0,37.91,0,21.37,0,42.74,0,64.11,0,27.86,0,55.71,0,83.57,0,32.53,0,65.05,0,97.58,0,34.85,0,69.69,0,104.54,0,35.26,0,70.51,0,105.77,0,33.76,0,67.52,0,101.29,0,29.91,0,59.82,0,89.72,0,24.26,0,48.51,0,72.77,0,16.33,0,32.66,0,48.99,0,6.47-.21,12.98,0,19.45.35,10.97,8.71,18.74,19.53,19,2.3.05,4.61,0,6.91,0,11.61,0,23.23,0,34.84,0,19.7,0,39.4,0,59.1,0,25.97,0,51.95,0,77.92,0,30.84,0,61.68,0,92.52,0,33.79,0,67.58,0,101.37,0,35.4,0,70.8,0,106.2,0,35.06,0,70.12,0,105.17,0,33.24,0,66.49,0,99.73,0,29.93,0,59.85,0,89.78,0,24.7,0,49.4,0,74.1,0,18.06,0,36.11,0,54.17,0,9.61,0,19.23,0,28.84,0,2.3,0,4.62.1,6.89-.32,9.97-1.8,15.48-10.57,15.54-20.15.05-8.83,0-17.66,0-26.49,0-18.31,0-36.61,0-54.92,0-25.57,0-51.15,0-76.72,0-30.86,0-61.73,0-92.59s0-68.55,0-102.83,0-70.66,0-105.99,0-69.3,0-103.94c0-31.61,0-63.21,0-94.82s0-53.37,0-80.06c0-19.8,0-39.6,0-59.4v-32.06c0-1.51.05-3.04-.02-4.55-.89-19.11-26.28-24.91-35.59-8.32-1.89,3.37,3.29,6.4,5.18,3.03,6.86-12.23,24.15-7.07,24.43,6.47.05,2.48,0,4.96,0,7.44v100.24c0,27.29,0,54.59,0,81.88s0,63.82,0,95.73c0,34.43,0,68.86,0,103.29,0,34.81,0,69.62,0,104.42s0,67.06,0,100.59,0,59.97,0,89.95c0,24.74,0,49.47,0,74.21,0,17.36,0,34.72,0,52.07,0,7.98.08,15.97,0,23.95s-5.29,13.58-13.21,13.87c-1.97.07-3.96,0-5.93,0-10.84,0-21.68,0-32.52,0-18.83,0-37.66,0-56.5,0-25.21,0-50.42,0-75.63,0-29.85,0-59.71,0-89.56,0-33.2,0-66.39,0-99.59,0-34.66,0-69.33,0-103.99,0s-69.74,0-104.61,0c-33.34,0-66.67,0-100.01,0-30.09,0-60.18,0-90.27,0-25.54,0-51.08,0-76.62,0-19.19,0-38.37,0-57.56,0-11.43,0-22.86,0-34.29,0-2.27,0-4.55.07-6.81,0-7.82-.23-13.28-5.61-13.53-13.45-.23-7.37,0-14.78,0-22.15s0-33.78,0-50.68c0-24.27,0-48.54,0-72.81,0-29.89,0-59.78,0-89.67s0-66.84,0-100.26c0-34.79,0-69.59,0-104.38s0-69.01,0-103.51,0-63.85,0-95.77c0-27.65,0-55.31,0-82.96s0-42.47,0-63.71,0-25.58,0-38.37c0-2.66-.02-5.32,0-7.98.01-1.45.05-2.87.42-4.3,2.38-9.35,14.95-12.67,21.65-5.74,4.03,4.17,6.36,10.85,9.2,15.89,3.17,5.62,6.44,11.19,9.82,16.69,6.86,11.17,14.15,22.09,21.85,32.7,14.95,20.61,31.39,40.13,49.19,58.33,36.15,36.94,77.89,68.46,123.37,93.03,44.65,24.13,92.82,41.51,142.57,51.55l-2.2-2.89v19.45c0,1.62,1.37,3,3,3h202c1.62,0,3-1.37,3-3v-19.45l-2.2,2.89c59-11.91,115.78-34.17,167.08-65.69,50.57-31.07,95.73-70.91,132.82-117.26,20.85-26.05,39.15-54.06,54.63-83.62,1.79-3.42-3.39-6.45-5.18-3.03Z"/>
      </g>
      <path class="cls-9" d="M216.39,1461.31c-1.76,3.43-3.33,6.97-5.3,10.27-10.66,17.82-19.43,36.16-21.25,57.42-1.07,12.51-8.07,22.62-17.56,30.75-17.09,14.63-36.23,25.64-58.77,32.87-.36-3.36-1.05-6.04-.86-8.67.77-10.86,1.7-21.72,2.76-32.56,1.59-16.32,10.87-28.51,23.47-37.34,13.74-9.62,28.95-17.13,43.46-25.65,6.17-3.62,12.19-7.48,17.97-11.51-40.02,9.02-78.79,2.37-117.45-6.05-.43-.83-.87-1.66-1.3-2.49,6.75-7,13-14.58,20.35-20.88,19.49-16.7,44.65-20.02,64.03-8.57,5.18,3.06,9.35,7.86,13.96,11.89,4.79,4.19,9.1,9.13,14.42,12.47,9.12,5.74,13.76,4.75,22.07-1.96Z"/>
      <path class="cls-9" d="M64.43,1347.11c2.6,1.6,5.1,3.41,7.83,4.76,8.95,4.45,18.28,6.62,28.46,5.79,5.69-.46,11.52.74,17.87,1.23-2.51-4.13-5.34-7.96-7.28-12.2-2.03-4.44-3.45-9.22-4.69-13.96-1.46-5.56-2.51-11.24-3.57-16.89-.34-1.82-.18-3.73-.25-5.59,1.68.35,3.36.7,5.49,1.15-.07-5.01-.29-10.26-.12-15.5.05-1.62,1.17-3.2,1.8-4.8,1.39.79,3.09,1.29,4.11,2.42,5.6,6.19,10.43,12.69,7.48,21.9-.34,1.05-.04,3.01.71,3.6,4.55,3.55,3.03,7.71,1.33,11.74-1.09,2.58-2.51,5.15-4.32,7.26-7.73,9.01-1.75,20.36,7.7,24.63,4.07,1.84,8.01,4.11,11.72,6.6,3.7,2.49,7.05,5.51,11.4,8.97-.68-1.58-.91-2.25-1.25-2.87-9.39-16.74-8-31.29,4.41-46,7.23-8.58,8.12-10.17,10.74-19.28,3.8,3.28,5.57,10.68,3.15,17.65-3.16,9.1-6.77,18.07-10.81,26.81-3.28,7.12-3.68,13.92-.96,21.22,4.22,11.31,10.64,20.51,21.84,26.02,9.7,4.77,18.98,10.41,28.75,15.01,7.9,3.72,16.47,5.14,25.29,4.26,1.04-.1,2.12.17,3.18.26.16.54.32,1.08.49,1.62-1.69.71-3.33,1.82-5.08,2.05-8.71,1.14-16.86-1.24-24.62-4.85-5.42-2.52-10.44-5.88-15.81-8.53-13.54-6.7-27.18-13.22-40.78-19.8-1.05-.51-2.25-.75-3.2-1.38-10.61-7.13-22.5-9.15-35.04-9.93-14.08-.88-25.55-7.88-35.04-18.12-4.23-4.56-8.26-9.32-12.37-13.99.47-.43.95-.85,1.42-1.28Z"/>
      <path class="cls-9" d="M850.07,1519.48c-17.95,17.2-35.45,35.08-58.33,46.13-23.41,11.31-48.04,12.36-75.21,5.49,18.33,22.48,40.07,30.15,66.55,29.92,18.99-.16,38.19,2.41,56.95,5.69,14.02,2.45,23.94,12.27,31.39,26.05-3.02,1.23-5.58,2.85-8.33,3.29-14.66,2.35-29.32,4.86-44.07,6.43-17.8,1.9-32.71-4.93-42.91-19.26-9.2-12.92-20.29-21.95-35.35-27.1-7.11-2.43-13.22-7.75-22.45-13.39,6.28,12.98,11.43,23.92,16.87,34.71,1.52,3.01,3.64,5.82,5.91,8.34,15.53,17.24,15.6,36.85,8.62,58.89-3.21-1.67-6.65-2.78-9.23-4.93-19.29-16.06-28.58-36.83-28.77-61.89-.09-12.7-.09-25.44-1.26-38.06-.44-4.79-3.26-9.9-6.33-13.82-9.74-12.46-20.19-24.37-30.19-36.64-2.48-3.05-4.3-6.64-4.89-11.67,2.19,1.53,4.78,2.71,6.5,4.65,9.23,10.46,18.69,20.78,27.16,31.84,4.71,6.15,10.34,8.48,16.86,6.22,8.63-2.99,17.29-6.65,24.9-11.61,10.36-6.76,19.56-15.26,29.57-22.58,15.49-11.33,32.74-15.7,51.87-12.31,7.75,1.37,15.64,1.98,23.47,2.94.22.88.45,1.77.67,2.65Z"/>
      <g>
        <g>
          <path class="cls-7" d="M1010.48,153.79H70.42c-7.33,0-13.28,5.94-13.28,13.28v363.47c0,14.01,18.88,18.47,25.14,5.94,69.45-138.81,200.17-241.62,356.72-272.97v-18.51h202v18.51c157.2,31.48,288.36,135.03,357.58,274.72,6.23,12.58,25.17,8.16,25.17-5.88V167.06c0-7.33-5.94-13.28-13.28-13.28Z"/>
          <path class="cls-3" d="M1010.48,150.79h-65.83c-24.45,0-48.89,0-73.34,0-30.78,0-61.55,0-92.33,0-35.12,0-70.23,0-105.35,0h-112.41c-37.67,0-75.35,0-113.02,0H72.88c-6.66,0-13.04,1.98-16.6,8.24-2.81,4.94-2.13,11.06-2.13,16.54,0,23.2,0,46.4,0,69.6,0,35.99,0,71.98,0,107.97s0,70.97,0,106.46c0,21.74,0,43.47,0,65.21,0,7.31.14,14.61,7.11,19.22,7.98,5.29,18.62,2.67,23.36-5.55,6.99-12.13,13.02-24.76,20.3-36.76,29.09-47.97,66.13-91,109.15-127.01,43.41-36.33,92.99-65.4,145.95-85.41,25.93-9.79,52.63-17.42,79.79-22.9,1.28-.26,2.2-1.64,2.2-2.89v-18.51l-3,3h202l-3-3v18.51c0,1.24.92,2.64,2.2,2.89,88.76,17.91,171.89,59.54,239.28,120.05,33.2,29.81,62.5,63.94,86.85,101.33,5.95,9.14,11.62,18.48,16.98,27.98,2.57,4.56,5.07,9.16,7.5,13.79s4.36,10.47,8.09,14.29c10.3,10.57,27.39,2.37,27.87-11.55.33-9.61,0-19.29,0-28.91V193.85c0-8.9.36-17.89,0-26.79s-7.14-15.84-16.28-16.28c-3.86-.18-3.85,5.82,0,6,8.71.41,10.28,7.46,10.28,14.28v16.23c0,20.07,0,40.14,0,60.21,0,56.31,0,112.61,0,168.92v112.96c0,6.27-1.98,12.58-9.52,13.22-3.97.34-7.44-1.6-9.53-4.91-2.96-4.69-5.11-10.06-7.73-14.96-5.15-9.63-10.61-19.1-16.37-28.39-22.54-36.35-49.63-69.91-80.42-99.61-62.5-60.29-140.12-104.39-224.03-126.81-10.38-2.77-20.84-5.2-31.36-7.32l2.2,2.89v-18.51c0-1.62-1.37-3-3-3h-202c-1.62,0-3,1.37-3,3v18.51l2.2-2.89c-55.11,11.12-108.28,31.26-156.86,59.57-47.47,27.66-90.49,62.98-126.87,104.15-18.2,20.6-34.79,42.65-49.49,65.87-7.38,11.66-14.3,23.62-20.71,35.83-2.58,4.92-4.64,12.3-10.44,14.26-4.47,1.51-9.84-.33-12.28-4.41-2.3-3.86-1.4-10.2-1.4-14.52,0-9.34,0-18.68,0-28.03,0-31.03,0-62.05,0-93.08s0-73.87,0-110.8c0-30.19,0-60.38,0-90.58,0-8.43,0-16.86,0-25.28,0-7.49-.04-16.26,10.29-16.83,5.87-.32,11.85,0,17.73,0h426.21c37.38,0,74.77,0,112.15,0h108.18c32.51,0,65.02,0,97.53,0,27.2,0,54.4,0,81.6,0h96.66c3.86,0,3.87-6,0-6Z"/>
        </g>
        <g>
          <path class="cls-6" d="M1008.75,525.09c-70.98-138.32-201.74-239.68-352.75-273.73v-21.36h-232v21.37c-150.29,33.89-280.71,134.6-351.86,271.97V168.79h936.61v356.3Z"/>
          <path class="cls-3" d="M1011.35,523.57c-27.64-53.69-64.51-102.51-108.53-143.85-43.73-41.07-94.34-74.82-149.2-99.12-31.16-13.8-63.58-24.59-96.82-32.13l2.2,2.89v-21.36c0-1.62-1.37-3-3-3h-232c-1.62,0-3,1.37-3,3v21.37l2.2-2.89c-58.67,13.31-114.9,36.81-165.71,69.01-50.46,31.98-95.57,72.41-132.72,119.2-21.08,26.55-39.59,55.06-55.23,85.15l5.59,1.51V174.19c0-1.38.39-3.43,0-4.77-.05-.18,0-.44,0-.64l-3,3h922.5c4.11,0,8.43.38,12.53,0,.52-.05,1.07,0,1.59,0l-3-3v341.75c0,4.58-.4,9.35,0,13.92.02.21,0,.42,0,.63,0,3.86,6,3.87,6,0V183.34c0-4.58.4-9.35,0-13.92-.02-.21,0-.42,0-.63,0-1.62-1.37-3-3-3H110.16c-12.14,0-24.29-.22-36.43,0-.53,0-1.06,0-1.59,0-1.62,0-3,1.37-3,3v340.13c0,4.53-.4,9.27,0,13.79.02.21,0,.43,0,.64,0,2.88,4.19,4.21,5.59,1.51,27.48-52.89,63.92-100.85,107.45-141.57,43.23-40.44,93.24-73.56,147.37-97.54,30.63-13.57,62.58-24.07,95.25-31.48,1.28-.29,2.2-1.62,2.2-2.89v-21.37l-3,3h232l-3-3v21.36c0,1.27.93,2.6,2.2,2.89,58.29,13.23,114.01,36.5,164.48,68.51,50.08,31.76,94.72,71.99,131.55,118.47,21.05,26.57,39.42,55.23,54.93,85.37,1.77,3.43,6.95.4,5.18-3.03Z"/>
        </g>
        <g>
          <rect class="cls-5" x="57" y="55" width="967" height="80" rx="34.76" ry="34.76"/>
          <path class="cls-4" d="M989.24,52H97.97c-4.54,0-9.04-.13-13.54.72-14.74,2.79-26.92,14.97-29.71,29.71-1.98,10.47-1.67,24.04,2.81,33.71,6.62,14.3,20.86,21.85,36.2,21.85h14.51c21.69,0,43.38,0,65.07,0h511.3c42.24,0,84.47,0,126.71,0,33.77,0,67.53,0,101.3,0,20.83,0,41.67,0,62.5,0,4.3,0,8.6.02,12.9,0,18.74-.07,35.47-12.73,38.49-31.71,1.59-10.01,1.35-22.59-2.76-31.86-6.07-13.68-19.68-22.15-34.5-22.43-3.86-.07-3.86,5.93,0,6,17.13.32,31.31,13.79,31.75,31.09.32,12.5-.07,24.71-9.73,34.04-7.24,6.99-16.39,8.87-25.96,8.87h-250.2c-44.79,0-89.57,0-134.36,0s-92.75,0-139.12,0-88.49,0-132.73,0c-37.79,0-75.58,0-113.37,0h-82.68c-13.14,0-26.27.03-39.41,0-18.15-.04-33.13-13.15-33.43-31.81-.21-12.76.38-24.98,10.65-34.17,6.01-5.37,13.62-7.93,21.6-8.02,11.29-.14,22.6,0,33.89,0h863.09c3.86,0,3.87-6,0-6Z"/>
        </g>
        <g>
          <g>
            <path class="cls-8" d="M815.28,292.46c-2.49,0-4.78-1.03-6.81-3.07-3.42-3.43-4.34-7.71-4.73-10.62-.33-2.49-2.33-4.65-4.88-5.27-.07,0-.14.01-.21.02-.91.12-1.81.18-2.69.18-5.76,0-10.85-2.57-15.14-7.65-2.71-3.21-4.13-6.91-5.06-9.77-.12-.36-.25-.72-.4-1.09-2.67,1.04-5.46,1.55-8.45,1.55-4.34,0-8.5-1.09-12-2.16-4.86-1.49-9.57-3.81-14.37-7.1-3.15,4.49-7.64,6.86-13.04,6.86-1.01,0-2.06-.08-3.12-.25-3.36-.53-6.69-.67-10.21-.81-1.43-.06-2.86-.12-4.29-.2-.08.02-.26.09-.5.24-2.1,1.26-4.44,1.9-6.95,1.9-.83,0-1.7-.07-2.58-.21-.89-.14-1.78-.55-2.72-1.26-1.52-1.14-1.96-2.46-2.05-3.37-.1-.91.05-2.29,1.3-3.73.12-.13.24-.26.36-.39-.11,0-.22,0-.32,0-.38,0-.75-.03-1.1-.09-2.03-.34-3.66-1.67-4.25-3.46-.58-1.75-.11-3.65,1.26-5.08.83-.87,2.58-2.43,4.87-3.15,2.13-.67,4.33-1.01,6.54-1.01,1.96,0,3.97.27,5.96.8,1.95.52,4.04.8,6.01,1.05.1,0,.5-.11.76-.19.2-.06.4-.11.6-.16.12-.42.32-.81.59-1.15.99-1.25.71-2.21-.36-4.64-.23-.53-.47-1.07-.68-1.63-.18-.13-.59-.38-1.31-.63-1.04-.37-2.14-.64-3.31-.93-.81-.2-1.61-.4-2.41-.63-3.05-.89-5.12-2.95-6.41-4.43-1.35-1.54-1.99-3.52-1.79-5.57.19-2.03,1.23-3.92,2.83-5.16.11-.09.35-.42.51-.64l.08-.11c2.78-3.84,6.81-8.39,13.37-9.47.78-.13,1.52-.17,2.23-.22.54-.03,1.06-.07,1.53-.13,7.51-12.53,19-19.64,35.12-21.73.45-.06.94-.09,1.43-.09.76,0,1.58.07,2.49.21,2.47.38,3.47,1.76,3.84,2.55.37.78.8,2.42-.48,4.55-.84,1.41-1.81,2.67-2.88,3.76-.19.2-.39.39-.59.58,2.42.56,4.8,1.65,7.34,3.36.46.31.92.69,1.36,1.13.46.45,1.85,1.84,1.66,3.76-.19,1.91-1.8,2.97-2.33,3.32-4.47,2.94-9.64,4.42-15.36,4.43-.56,0-1.12-.01-1.68-.04-1.88-.09-3.73-.33-5.52-.56l-1.48-.19c-.72-.09-1.44-.13-2.15-.13-2.67,0-5.28.61-7.9,1.86.12.19.25.39.36.6.85,1.58,1.71,3.31,2.24,5.18.2.68.37.86.6,1.04,4.16,3.31,9.13,5.48,15.63,6.86,4.02.85,8.2,1.26,12.79,1.26,1.52,0,3.11-.05,4.73-.14,1.52-.09,3.03-.13,4.47-.13,4.48,0,8.59.41,12.56,1.26,4.73,1.01,9.56,2.49,13.31,6.22.98-.64,2.03-.96,3.15-.96.77,0,1.56.16,2.34.47,3.2,1.27,5.06,3.89,5.25,7.39.22,4.06-1.07,7.12-3.83,9.13.13,1.4.3,2.82.47,4.21l.09.75c.43,3.56,1.99,6.93,4.79,10.3.91,1.1,2.21,1.48,3.13,1.6,3.33.45,5.36,2.52,6.03,6.16.84,4.52,2.21,7.86,4.3,10.52.51.65,1.1,1.27,1.72,1.93.38.4.76.81,1.13,1.22l.24.26c.42.45.94,1.02,1.33,1.77.86,1.67.66,3.04.34,3.9-.32.87-1.09,2.05-2.9,2.78-.88.35-1.84.53-2.86.53-2.11,0-4.14-.78-5.62-2.08-.04.45-.16.89-.35,1.32-.68,1.52-2.22,2.53-4.12,2.71-.29.03-.58.04-.86.04ZM813.54,273.77c.06.53.17,1.09.29,1.68.11.56.22,1.11.3,1.67.29,2.07,1.17,3.72,2.7,5.05.07.06.13.12.2.17-.25-.57-.49-1.14-.72-1.7-.25-.6-.5-1.2-.76-1.79-.37-.85-.63-1.7-.88-2.51-.09-.3-.18-.6-.28-.89-.2-.62-.49-1.17-.84-1.68Z"/>
            <path class="cls-3" d="M758.48,180.3c.7,0,1.42.07,2.11.18,2.02.31,2.65,1.58,1.6,3.35-.7,1.18-1.55,2.31-2.51,3.28-1.44,1.46-3.04,2.77-4.63,4.19,1.11.09,2.2.17,3.3.27,3.14.29,5.89,1.58,8.47,3.31.36.24.69.52.99.83,1.33,1.32,1.26,2.2-.28,3.21-4.28,2.81-8.99,4.02-13.99,4.02-.52,0-1.04-.01-1.56-.04-2.28-.11-4.55-.45-6.82-.73-.83-.1-1.65-.15-2.46-.15-4.07,0-7.83,1.25-11.39,3.4-.1.06-.17.19-.27.31.65.81,1.43,1.53,1.91,2.42.8,1.5,1.58,3.06,2.04,4.69.28.99.67,1.7,1.44,2.31,4.92,3.91,10.6,6.06,16.67,7.35,4.4.93,8.84,1.31,13.3,1.31,1.62,0,3.25-.05,4.87-.14,1.45-.08,2.89-.13,4.33-.13,4.04,0,8.06.35,12.04,1.2,5.23,1.11,10.22,2.71,13.65,7.39.95-1.26,2.02-2.07,3.33-2.07.44,0,.92.09,1.42.29,2.33.92,3.54,2.77,3.67,5.2.16,2.99-.58,5.66-3.38,7.36-.29.18-.54.74-.51,1.1.16,1.94.4,3.86.63,5.79.53,4.44,2.55,8.22,5.35,11.6,1.2,1.45,2.91,2.24,4.73,2.48,2.51.34,3.49,1.89,3.9,4.13.78,4.2,2.11,8.2,4.8,11.61.91,1.15,1.97,2.17,2.95,3.26.43.48.92.94,1.2,1.5.74,1.44.24,2.61-1.26,3.22-.58.24-1.24.35-1.92.35-1.86,0-3.87-.87-4.86-2.52-1.43-2.38-2.41-5.03-3.52-7.59-.45-1.02-.73-2.12-1.08-3.18-1.05-3.2-3.58-5.01-6.33-6.54-.16-.09-.36-.12-.57-.12-.45,0-.97.14-1.42.18-.85.08-1.69.21-2.7.64.85.49,1.66,1.11,2.57,1.44,1.63.59,2.58,1.56,2.72,3.36.09,1.29.45,2.55.63,3.83.37,2.63,1.52,4.83,3.53,6.58.84.74,1.69,1.5,2.36,2.39,1.23,1.65.42,3.29-1.64,3.48-.21.02-.43.03-.63.03-1.99,0-3.61-.9-5.04-2.34-2.54-2.55-3.56-5.71-4.02-9.19-.48-3.62-3.32-6.57-6.86-7.39-.15-.04-.31-.05-.47-.05-.19,0-.37.02-.56.04-.81.11-1.6.16-2.36.16-5.37,0-9.67-2.55-13.23-6.76-2.2-2.61-3.54-5.7-4.6-8.93-.4-1.21-.95-2.38-1.47-3.66-3.29,1.74-6.54,2.4-9.76,2.4-3.78,0-7.52-.91-11.26-2.05-5.25-1.61-10.03-4.18-14.51-7.34-.39-.27-.78-.54-1.23-.86-.31.45-.63.85-.89,1.28-2.8,4.47-6.81,6.57-11.51,6.57-.89,0-1.8-.07-2.73-.22-4.94-.78-9.88-.75-14.82-1.05-.03,0-.07,0-.1,0-.58,0-1.24.28-1.75.59-1.8,1.08-3.7,1.54-5.67,1.54-.72,0-1.45-.06-2.19-.18-.57-.09-1.14-.44-1.61-.79-1.29-.97-1.43-2.24-.37-3.46,1.27-1.45,2.93-2.32,4.79-2.65,2.97-.52,5.97-.89,8.97-1.3.81-.11,1.62-.17,2.59-.27-2.67-.95-6.11-1.42-9.45-1.42-2.69,0-5.31.31-7.4.92-.42.12-.89.19-1.35.19-.23,0-.47-.02-.69-.06-2.29-.38-3.2-2.68-1.6-4.35,1.03-1.08,2.41-2.06,3.81-2.5,1.91-.6,3.85-.9,5.79-.9,1.77,0,3.54.24,5.32.72,2.07.55,4.21.85,6.34,1.12.09.01.18.02.27.02.65,0,1.34-.26,2-.42.89-.22,1.58-.69,1.78-1.66.03-.12.08-.25.16-.35,2.52-3.18.27-6.07-.74-8.92-.3-.86-1.7-1.52-2.73-1.89-1.9-.68-3.91-1.04-5.86-1.6-2.15-.62-3.79-2.03-5.23-3.67-1.87-2.13-1.5-5.4.69-7.11.43-.33.76-.81,1.08-1.26,2.98-4.12,6.45-7.59,11.75-8.47,1.27-.21,2.59-.17,3.86-.36.5-.08,1.17-.37,1.4-.77,7.53-12.84,19.17-19.07,33.53-20.93.36-.05.74-.07,1.11-.07M758.48,175.3c-.6,0-1.19.04-1.75.11-16.22,2.1-28.41,9.44-36.27,21.83-.07,0-.14,0-.21.01-.74.05-1.58.1-2.48.25-7.47,1.23-11.94,6.24-14.99,10.47l-.08.11c-.06.09-.14.2-.2.28-2.04,1.67-3.35,4.11-3.6,6.75-.26,2.7.62,5.42,2.4,7.45,1.5,1.71,3.92,4.11,7.59,5.18.86.25,1.7.46,2.51.66,1.1.27,2.15.53,3.06.85.06.02.12.04.17.06.13.3.25.58.37.85.28.64.69,1.57.75,1.99-.02.02-.04.05-.07.09-.12.15-.23.31-.34.48-1.69-.22-3.43-.48-5.01-.9-2.2-.59-4.43-.88-6.61-.88-2.47,0-4.92.38-7.29,1.13-2.09.66-4.19,2.01-5.92,3.8-2.03,2.11-2.71,4.95-1.84,7.6.67,2.01,2.18,3.63,4.14,4.52-.25.86-.33,1.74-.24,2.63.21,1.98,1.29,3.8,3.04,5.11,1.28.96,2.53,1.53,3.83,1.73,1.01.16,2.01.24,2.98.24,2.87,0,5.55-.71,7.98-2.1,1.24.07,2.47.12,3.67.17,3.45.14,6.71.28,9.92.78,1.19.19,2.37.28,3.51.28,5.36,0,10.07-2.11,13.57-6.01,4.35,2.76,8.67,4.78,13.11,6.14,3.67,1.12,8.06,2.27,12.73,2.27,2.41,0,4.7-.3,6.91-.91,1.01,2.86,2.5,6.26,5.1,9.33,4.79,5.66,10.52,8.54,17.05,8.54.88,0,1.77-.05,2.67-.16,1.38.48,2.43,1.69,2.62,3.06.44,3.27,1.48,8.08,5.44,12.06,2.52,2.53,5.4,3.81,8.58,3.81.36,0,.73-.02,1.09-.05,2.25-.21,4.17-1.25,5.39-2.86,1.37.59,2.89.92,4.47.92,1.34,0,2.62-.24,3.79-.71,2.07-.83,3.6-2.34,4.31-4.23.7-1.87.53-3.97-.46-5.91-.54-1.06-1.25-1.82-1.72-2.32-.07-.08-.14-.15-.21-.23-.38-.43-.78-.85-1.17-1.26-.59-.62-1.14-1.2-1.58-1.76-1.84-2.32-3.05-5.32-3.81-9.42-1.17-6.32-5.61-7.84-8.15-8.18-.49-.07-1.15-.24-1.54-.72-2.48-3-3.87-5.94-4.23-9.01l-.1-.79c-.12-.96-.23-1.89-.33-2.8,2.14-2.01,3.98-5.23,3.71-10.34-.24-4.46-2.72-7.95-6.82-9.58-1.08-.43-2.18-.65-3.26-.65-.78,0-1.71.11-2.7.47-3.93-3.29-8.63-4.7-13.23-5.68-4.14-.88-8.42-1.31-13.08-1.31-1.49,0-3.05.05-4.62.14-1.57.09-3.11.14-4.59.14-4.41,0-8.43-.39-12.27-1.21-5.99-1.26-10.56-3.23-14.35-6.18-.39-1.34-.9-2.58-1.47-3.75,1.45-.44,2.91-.66,4.37-.66.61,0,1.23.04,1.85.11.49.06.98.12,1.47.18,1.84.24,3.74.48,5.72.57.6.03,1.21.04,1.8.04,6.22,0,11.85-1.63,16.73-4.84,2.08-1.37,3.24-3.1,3.45-5.16.21-2.06-.6-4.01-2.39-5.78-.55-.55-1.14-1.03-1.73-1.42-1.48-.99-2.93-1.8-4.38-2.44.44-.6.86-1.24,1.26-1.9,1.87-3.13,1.17-5.67.59-6.9-.58-1.24-2.1-3.4-5.72-3.95-1.04-.16-1.98-.24-2.87-.24h0Z"/>
          </g>
          <g>
            <path class="cls-8" d="M264.72,292.46c-.28,0-.57-.01-.86-.04-1.9-.18-3.45-1.19-4.12-2.71-.19-.43-.31-.87-.35-1.32-1.48,1.3-3.51,2.08-5.62,2.08-1.02,0-1.98-.18-2.86-.53-1.81-.73-2.57-1.92-2.9-2.78-.32-.85-.52-2.22.34-3.9.39-.75.91-1.31,1.32-1.76l.24-.26c.37-.41.75-.81,1.13-1.21.63-.66,1.22-1.28,1.73-1.93,2.1-2.66,3.47-6,4.31-10.52.67-3.64,2.7-5.71,6.03-6.16.93-.12,2.22-.5,3.13-1.6,2.8-3.38,4.37-6.75,4.79-10.3l.09-.77c.17-1.38.34-2.79.47-4.19-2.76-2.01-4.05-5.08-3.83-9.13.19-3.5,2.05-6.12,5.25-7.39.78-.31,1.57-.47,2.34-.47,1.12,0,2.17.32,3.15.96,3.75-3.73,8.58-5.21,13.31-6.22,3.97-.85,8.08-1.26,12.56-1.26,1.44,0,2.95.04,4.47.13,1.62.09,3.21.14,4.73.14,4.59,0,8.77-.41,12.79-1.26,6.51-1.38,11.48-3.55,15.64-6.86.23-.18.4-.36.6-1.04.54-1.87,1.4-3.6,2.24-5.18.11-.21.23-.41.36-.59-2.62-1.25-5.23-1.86-7.9-1.86-.71,0-1.43.04-2.15.13l-1.48.19c-1.79.23-3.64.47-5.52.56-.56.03-1.12.04-1.68.04-5.72,0-10.89-1.49-15.36-4.43-.53-.35-2.14-1.41-2.33-3.32-.19-1.92,1.2-3.3,1.66-3.76.44-.44.9-.82,1.36-1.13,2.54-1.71,4.93-2.8,7.34-3.36-.2-.19-.4-.39-.59-.58-1.07-1.08-2.03-2.34-2.88-3.75-1.28-2.13-.85-3.77-.48-4.55.37-.79,1.36-2.17,3.84-2.55.91-.14,1.72-.21,2.48-.21.5,0,.98.03,1.43.09,16.11,2.09,27.61,9.19,35.12,21.72.5.08,1,.11,1.54.14.71.04,1.45.09,2.23.22,6.57,1.08,10.6,5.63,13.37,9.47l.08.1c.16.22.4.56.51.64,1.6,1.25,2.63,3.13,2.83,5.16.2,2.05-.44,4.03-1.79,5.57-1.29,1.48-3.36,3.54-6.41,4.43-.79.23-1.6.43-2.41.63-1.17.29-2.27.56-3.31.93-.71.25-1.13.5-1.31.63-.21.56-.45,1.11-.68,1.63-1.07,2.43-1.35,3.39-.36,4.64.27.33.46.73.59,1.14.2.05.4.1.6.16.26.07.66.18.79.19,1.93-.25,4.02-.53,5.97-1.05,1.99-.53,4-.8,5.96-.8,2.21,0,4.41.34,6.54,1.01,2.29.72,4.03,2.28,4.87,3.15,1.37,1.43,1.84,3.33,1.27,5.08-.59,1.8-2.22,3.12-4.25,3.46-.35.06-.72.09-1.1.09-.11,0-.22,0-.32,0,.12.13.24.26.36.39,1.25,1.44,1.4,2.82,1.3,3.73-.1.91-.53,2.23-2.05,3.38-.94.71-1.83,1.12-2.72,1.26-.88.14-1.75.21-2.58.21-2.51,0-4.85-.64-6.95-1.9-.25-.15-.43-.21-.5-.24-1.43.09-2.86.15-4.29.2-3.52.15-6.85.28-10.21.81-1.06.17-2.11.25-3.12.25-5.41,0-9.9-2.37-13.04-6.86-4.81,3.29-9.52,5.61-14.37,7.1-3.5,1.07-7.65,2.16-12,2.16-2.99,0-5.78-.51-8.45-1.55-.15.37-.29.74-.4,1.09-.93,2.86-2.35,6.56-5.06,9.77-4.29,5.08-9.38,7.65-15.14,7.65h0c-.88,0-1.78-.06-2.68-.18-.07,0-.14-.02-.21-.02-2.54.62-4.55,2.78-4.88,5.27-.39,2.91-1.3,7.19-4.73,10.62-2.03,2.04-4.32,3.07-6.81,3.07ZM266.46,273.77c-.36.51-.64,1.06-.84,1.68-.1.29-.19.59-.28.88-.25.82-.51,1.66-.88,2.52-.26.59-.51,1.19-.76,1.78-.24.57-.48,1.14-.73,1.71.07-.06.13-.12.2-.17,1.52-1.33,2.41-2.98,2.7-5.05.08-.56.19-1.12.3-1.68.12-.59.23-1.15.29-1.68Z"/>
            <path class="cls-3" d="M321.52,180.3c.37,0,.75.02,1.11.07,14.36,1.86,26,8.09,33.53,20.93.24.4.9.69,1.4.77,1.28.2,2.59.15,3.86.36,5.31.87,8.77,4.34,11.75,8.47.32.45.65.93,1.08,1.26,2.2,1.71,2.56,4.97.69,7.11-1.44,1.64-3.08,3.05-5.23,3.67-1.94.57-3.96.92-5.86,1.6-1.03.37-2.42,1.03-2.73,1.89-1.01,2.85-3.26,5.74-.74,8.92.08.1.13.23.16.35.2.98.89,1.45,1.78,1.66.66.16,1.35.42,2,.42.09,0,.18,0,.27-.02,2.13-.27,4.27-.57,6.34-1.12,1.78-.47,3.56-.72,5.32-.72,1.95,0,3.88.29,5.79.9,1.41.44,2.78,1.42,3.81,2.5,1.6,1.67.69,3.96-1.6,4.35-.22.04-.45.06-.69.06-.46,0-.93-.07-1.35-.19-2.09-.61-4.71-.92-7.4-.92-3.34,0-6.78.47-9.45,1.42.97.1,1.78.16,2.59.27,2.99.42,5.99.78,8.97,1.3,1.86.33,3.52,1.2,4.79,2.65,1.06,1.22.93,2.49-.37,3.46-.47.36-1.04.7-1.61.79-.74.12-1.47.18-2.19.18-1.97,0-3.87-.47-5.67-1.54-.52-.31-1.17-.59-1.75-.59-.04,0-.07,0-.1,0-4.94.3-9.88.27-14.82,1.05-.93.15-1.85.22-2.73.22-4.7,0-8.72-2.09-11.51-6.57-.27-.43-.58-.83-.89-1.28-.46.32-.85.59-1.23.86-4.48,3.16-9.26,5.73-14.51,7.34-3.74,1.14-7.48,2.05-11.26,2.05-3.22,0-6.47-.66-9.76-2.4-.52,1.29-1.07,2.45-1.47,3.66-1.05,3.23-2.39,6.32-4.6,8.93-3.56,4.21-7.86,6.76-13.23,6.76-.76,0-1.55-.05-2.36-.16-.18-.02-.37-.04-.56-.04-.16,0-.32.01-.47.05-3.54.82-6.38,3.77-6.86,7.39-.46,3.48-1.48,6.64-4.02,9.19-1.43,1.43-3.05,2.34-5.04,2.34-.21,0-.42,0-.63-.03-2.05-.19-2.87-1.84-1.64-3.48.66-.89,1.52-1.65,2.36-2.39,2.01-1.76,3.16-3.95,3.53-6.58.18-1.28.54-2.55.63-3.83.13-1.81,1.09-2.77,2.72-3.36.91-.33,1.71-.95,2.57-1.44-1.01-.43-1.85-.56-2.7-.64-.45-.04-.98-.18-1.42-.18-.21,0-.41.03-.57.12-2.75,1.53-5.28,3.33-6.33,6.54-.35,1.07-.63,2.16-1.08,3.18-1.11,2.56-2.09,5.21-3.52,7.59-.99,1.65-3,2.52-4.86,2.52-.68,0-1.34-.12-1.92-.35-1.51-.61-2-1.78-1.26-3.22.29-.56.78-1.02,1.2-1.5.98-1.09,2.05-2.11,2.95-3.26,2.69-3.41,4.02-7.41,4.8-11.61.42-2.25,1.39-3.8,3.9-4.13,1.82-.24,3.53-1.04,4.73-2.48,2.8-3.38,4.82-7.16,5.35-11.6.23-1.93.48-3.86.63-5.79.03-.36-.22-.92-.51-1.1-2.81-1.7-3.54-4.37-3.38-7.36.13-2.43,1.34-4.27,3.67-5.2.5-.2.98-.29,1.42-.29,1.31,0,2.38.81,3.33,2.07,3.43-4.68,8.41-6.28,13.65-7.39,3.98-.85,8-1.2,12.04-1.2,1.44,0,2.88.04,4.33.13,1.63.09,3.25.14,4.87.14,4.46,0,8.9-.38,13.3-1.31,6.07-1.28,11.76-3.44,16.67-7.35.77-.61,1.16-1.33,1.44-2.31.47-1.63,1.24-3.19,2.04-4.69.48-.89,1.26-1.61,1.91-2.42-.1-.12-.17-.25-.27-.31-3.56-2.16-7.32-3.4-11.39-3.4-.81,0-1.62.05-2.46.15-2.27.28-4.54.62-6.82.73-.52.03-1.04.04-1.56.04-4.99,0-9.71-1.2-13.99-4.02-1.54-1.01-1.61-1.89-.28-3.21.31-.3.64-.59.99-.83,2.58-1.73,5.33-3.02,8.47-3.31,1.09-.1,2.19-.18,3.3-.27-1.59-1.42-3.18-2.73-4.63-4.19-.96-.97-1.81-2.1-2.51-3.28-1.05-1.76-.43-3.04,1.6-3.35.69-.11,1.4-.18,2.11-.18M321.52,175.3c-.89,0-1.83.08-2.87.24-3.62.56-5.14,2.72-5.72,3.95-.58,1.23-1.28,3.77.59,6.9.39.66.82,1.29,1.26,1.9-1.45.64-2.91,1.45-4.38,2.44-.59.4-1.17.88-1.73,1.42-1.79,1.78-2.6,3.72-2.39,5.78.21,2.06,1.37,3.79,3.45,5.16,4.89,3.21,10.51,4.84,16.73,4.84.59,0,1.2-.01,1.8-.04,1.98-.1,3.88-.34,5.72-.57.49-.06.98-.13,1.47-.18.62-.08,1.24-.11,1.85-.11,1.47,0,2.92.22,4.37.66-.56,1.17-1.08,2.41-1.47,3.75-3.8,2.95-8.37,4.92-14.35,6.18-3.84.81-7.86,1.21-12.27,1.21-1.47,0-3.02-.05-4.59-.14-1.57-.09-3.13-.14-4.62-.14-4.66,0-8.94.43-13.08,1.31-4.6.98-9.3,2.39-13.23,5.68-.99-.35-1.92-.47-2.7-.47-1.09,0-2.19.22-3.27.65-4.09,1.63-6.58,5.12-6.82,9.58-.27,5.1,1.57,8.33,3.71,10.34-.1.92-.21,1.84-.33,2.8l-.1.79c-.37,3.06-1.75,6.01-4.23,9.01-.39.48-1.06.65-1.54.72-2.54.34-6.98,1.86-8.16,8.18-.76,4.1-1.97,7.1-3.81,9.42-.44.56-1,1.14-1.58,1.76-.4.42-.79.84-1.17,1.26-.07.08-.14.15-.21.23-.47.5-1.17,1.27-1.72,2.32-1,1.94-1.16,4.04-.46,5.91.71,1.89,2.23,3.39,4.31,4.23,1.17.47,2.45.71,3.79.71,1.57,0,3.09-.32,4.47-.92,1.22,1.61,3.14,2.65,5.39,2.86.37.03.73.05,1.09.05,3.17,0,6.06-1.28,8.58-3.81,3.96-3.97,5-8.78,5.44-12.06.18-1.37,1.23-2.58,2.62-3.06.92.11,1.81.16,2.67.16,6.53,0,12.26-2.87,17.05-8.54,2.6-3.07,4.09-6.48,5.1-9.33,2.21.61,4.5.91,6.91.91,4.67,0,9.06-1.15,12.73-2.27,4.44-1.36,8.76-3.38,13.11-6.14,3.5,3.9,8.22,6.01,13.57,6.01,1.14,0,2.32-.1,3.51-.28,3.21-.51,6.47-.64,9.92-.78,1.2-.05,2.43-.1,3.67-.17,2.43,1.39,5.11,2.1,7.98,2.1.96,0,1.97-.08,2.98-.24,1.3-.21,2.55-.77,3.83-1.73,1.75-1.31,2.83-3.13,3.04-5.11.09-.88.01-1.77-.24-2.63,1.96-.89,3.47-2.5,4.14-4.52.88-2.65.19-5.49-1.84-7.6-1.73-1.79-3.83-3.15-5.92-3.8-2.37-.75-4.83-1.13-7.29-1.13-2.18,0-4.4.3-6.61.88-1.58.42-3.32.68-5.01.9-.11-.17-.22-.32-.34-.48-.03-.04-.05-.06-.07-.09.06-.42.47-1.36.75-1.99.12-.27.24-.55.37-.85.05-.02.11-.04.17-.06.91-.33,1.96-.58,3.06-.85.81-.2,1.65-.4,2.51-.66,3.68-1.07,6.09-3.47,7.59-5.18,1.78-2.03,2.66-4.75,2.4-7.45-.25-2.64-1.56-5.08-3.6-6.75-.06-.08-.14-.19-.2-.28l-.08-.11c-3.06-4.23-7.53-9.24-14.99-10.47-.9-.15-1.74-.2-2.48-.25-.07,0-.14,0-.21-.01-7.86-12.39-20.05-19.73-36.27-21.83-.56-.07-1.15-.11-1.75-.11h0Z"/>
          </g>
        </g>
        <g>
          <g>
            <path class="cls-8" d="M539.78,214.4c-7.82-.06-14.19-6.44-14.19-14.22,0-3.8,1.49-7.39,4.2-10.09,2.71-2.7,6.29-4.19,10.09-4.19h.24c7.8.14,14.07,6.61,13.98,14.44-.09,7.75-6.47,14.06-14.23,14.06,0,0-.11,0-.11,0ZM506.53,214.39c-2.93,0-5.74-.87-8.12-2.51-1.13-.78-4.15-2.86-1.81-7.06,1.96-3.52,1.63-7.21-1.02-11.27l-.83-1.27,1-1.14c2.96-3.38,6.86-5.24,10.99-5.24,3.27,0,6.4,1.17,9.04,3.38,5.75,4.81,6.72,13.33,2.22,19.42-2.64,3.56-6.92,5.69-11.46,5.69h0ZM603.39,214.38c-3.92,0-7.71-1.75-10.4-4.8-4.38-4.98-4.72-12.48-.81-17.82,2.67-3.65,6.76-5.75,11.23-5.75,2.22,0,4.42.51,6.54,1.51l2.31,1.09-1.61,1.98c-6.9,8.51-6.91,11.69-.09,18.88l1.75,1.85-2.21,1.26c-2.06,1.18-4.38,1.8-6.71,1.8ZM572.82,214.36c-3.65,0-7.12-1.48-9.78-4.16-5.51-5.56-5.51-14.55,0-20.05,2.74-2.73,6.24-4.24,9.86-4.24,3.95,0,7.85,1.77,10.98,4.97l1.1,1.13-.84,1.33c-2.96,4.72-2.95,9.12.05,13.45l.93,1.35-1.14,1.18c-3.15,3.25-7.12,5.04-11.17,5.04h0ZM476.37,214.34c-2.27,0-4.52-.54-6.68-1.61l-2.6-1.29,2.13-1.97c3.27-3.03,4.93-6.12,4.96-9.2.02-3.1-1.63-6.26-4.91-9.4l-1.99-1.9,2.43-1.3c2.05-1.1,4.35-1.68,6.64-1.68,4.13,0,8.03,1.85,10.69,5.07,4.28,5.17,4.38,12.51.25,17.85-2.68,3.46-6.65,5.44-10.91,5.44h0ZM630.62,214.19c-4.98,0-9.17-2.24-11.77-6.31-3.28-5.12-2.96-11.78.8-16.57,2.62-3.33,6.53-5.24,10.74-5.24,1.38,0,2.77.21,4.12.62l4.39,1.34-3.97,2.31c-4.28,2.48-6.37,5.67-6.39,9.75-.02,4.22,2.07,7.4,6.59,10.01l4.54,2.63-5.14,1.06c-1.34.28-2.65.42-3.9.42h0Z"/>
            <path class="cls-3" d="M539.89,187.89c.07,0,.14,0,.21,0,6.7.11,12.1,5.69,12.02,12.42-.08,6.71-5.52,12.09-12.23,12.09-.03,0-.06,0-.09,0-6.75-.05-12.2-5.51-12.21-12.22,0-6.76,5.55-12.28,12.3-12.28M506.74,187.91c2.71,0,5.43.96,7.75,2.91,4.93,4.12,5.76,11.47,1.89,16.69-2.36,3.19-6.09,4.88-9.85,4.88-2.43,0-4.88-.7-6.99-2.16-1.71-1.18-2.44-2.21-1.2-4.44,2.49-4.48,1.75-8.97-1.09-13.33,2.65-3.03,6.07-4.55,9.49-4.55M572.9,187.92c3.31,0,6.7,1.45,9.55,4.37-3.19,5.09-3.56,10.36.1,15.65-2.87,2.96-6.35,4.43-9.73,4.43-3.04,0-6.01-1.19-8.36-3.57-4.7-4.73-4.7-12.55,0-17.22,2.44-2.43,5.42-3.65,8.45-3.65M476.34,187.99c3.44,0,6.81,1.51,9.15,4.34,3.66,4.43,3.75,10.78.21,15.35-2.36,3.05-5.74,4.66-9.33,4.66-1.91,0-3.88-.46-5.79-1.4,7.19-6.67,7.71-14.21.07-21.51,1.81-.97,3.77-1.45,5.69-1.45M603.41,188.01c1.88,0,3.81.43,5.69,1.32-7.49,9.24-7.49,13.61.01,21.52-1.81,1.03-3.77,1.53-5.72,1.53-3.28,0-6.52-1.42-8.89-4.12-3.79-4.31-4.08-10.69-.7-15.32,2.35-3.21,5.86-4.93,9.61-4.93M630.39,188.07c1.17,0,2.36.17,3.54.53-4.54,2.63-7.37,6.28-7.39,11.47-.02,5.22,2.73,8.94,7.59,11.75-1.22.25-2.39.37-3.5.37-4.39,0-7.86-1.92-10.09-5.39-2.84-4.43-2.57-10.11.68-14.26,2.24-2.86,5.6-4.48,9.17-4.48M539.89,183.89c-4.33,0-8.42,1.69-11.51,4.77-3.09,3.08-4.79,7.17-4.79,11.51,0,8.88,7.26,16.15,16.18,16.22h.12c8.85,0,16.13-7.19,16.23-16.04.1-8.92-7.05-16.31-15.95-16.46h-.28ZM506.74,183.91c-4.71,0-9.15,2.1-12.5,5.92l-2,2.28,1.65,2.54c2.93,4.5,1.94,7.41.94,9.2-1.47,2.64-2.23,6.46,2.43,9.68,2.72,1.88,5.92,2.87,9.26,2.87,5.17,0,10.06-2.43,13.07-6.5,5.13-6.93,4.02-16.66-2.54-22.14-3.01-2.51-6.57-3.84-10.32-3.84h0ZM572.9,183.92c-4.15,0-8.16,1.71-11.28,4.82-6.3,6.27-6.3,16.54-.01,22.87,3.04,3.06,7.02,4.75,11.2,4.75,4.6,0,9.07-2,12.6-5.64l2.29-2.36-1.87-2.7c-2.56-3.7-2.56-7.17,0-11.25l1.67-2.67-2.2-2.25c-3.51-3.6-7.92-5.58-12.41-5.58h0ZM476.34,183.99c-2.62,0-5.24.66-7.58,1.92l-4.86,2.61,3.98,3.81c2.87,2.74,4.31,5.41,4.29,7.94-.02,2.5-1.47,5.11-4.32,7.75l-4.26,3.95,5.21,2.57c2.44,1.2,4.98,1.81,7.56,1.81,4.88,0,9.43-2.26,12.49-6.21,4.71-6.08,4.59-14.45-.29-20.35-3.05-3.68-7.51-5.79-12.23-5.79h0ZM603.41,184.01c-5.11,0-9.79,2.39-12.84,6.57-4.46,6.1-4.07,14.65.93,20.32,3.06,3.48,7.4,5.48,11.9,5.48,2.68,0,5.35-.71,7.7-2.06l4.42-2.53-3.5-3.7c-3.17-3.35-4.53-5.6-4.53-7.51,0-2.01,1.45-4.71,4.72-8.74l3.21-3.96-4.61-2.18c-2.39-1.13-4.88-1.7-7.4-1.7h0ZM630.39,184.07c-4.83,0-9.32,2.19-12.31,6.01-4.28,5.46-4.65,13.04-.91,18.88,2.99,4.67,7.77,7.23,13.46,7.23,1.39,0,2.84-.15,4.31-.46l10.29-2.12-9.09-5.26c-4.98-2.88-5.6-5.93-5.59-8.27,0-2.11.58-5.23,5.4-8.03l7.95-4.61-8.79-2.68c-1.54-.47-3.12-.71-4.7-.71h0Z"/>
          </g>
          <g>
            <path class="cls-8" d="M539.78,214.4c-7.82-.06-14.19-6.44-14.19-14.22,0-3.8,1.49-7.39,4.2-10.09,2.71-2.7,6.29-4.19,10.09-4.19h.24c7.8.14,14.07,6.61,13.98,14.44-.09,7.75-6.47,14.06-14.23,14.06h-.1Z"/>
            <path class="cls-3" d="M539.89,187.89c.07,0,.14,0,.21,0,6.7.11,12.1,5.69,12.02,12.42-.08,6.71-5.52,12.09-12.23,12.09-.03,0-.06,0-.09,0-6.75-.05-12.2-5.51-12.21-12.22,0-6.76,5.55-12.28,12.3-12.28M539.89,183.89h0c-4.33,0-8.42,1.7-11.51,4.77-3.09,3.08-4.79,7.17-4.79,11.51,0,8.88,7.26,16.15,16.18,16.22h.12c8.85,0,16.13-7.19,16.23-16.04.1-8.92-7.05-16.31-15.95-16.46h-.28Z"/>
          </g>
          <g>
            <path class="cls-8" d="M572.82,214.36c-3.65,0-7.12-1.48-9.78-4.16-5.51-5.56-5.51-14.55,0-20.05,2.74-2.73,6.24-4.24,9.86-4.24,3.95,0,7.85,1.77,10.98,4.97l1.1,1.13-.84,1.33c-2.96,4.72-2.95,9.12.05,13.45l.93,1.35-1.14,1.18c-3.15,3.25-7.12,5.04-11.17,5.04Z"/>
            <path class="cls-3" d="M572.9,187.92c3.32,0,6.7,1.45,9.55,4.37-3.19,5.09-3.56,10.36.1,15.65-2.87,2.96-6.35,4.43-9.73,4.43-3.04,0-6.01-1.19-8.36-3.57-4.7-4.73-4.7-12.55,0-17.22,2.44-2.43,5.42-3.65,8.45-3.65M572.9,183.92h0c-4.15,0-8.16,1.71-11.28,4.82-6.3,6.27-6.3,16.54-.01,22.87,3.04,3.06,7.02,4.75,11.2,4.75,4.6,0,9.07-2,12.6-5.64l2.29-2.36-1.87-2.7c-2.56-3.7-2.56-7.17,0-11.25l1.67-2.67-2.2-2.25c-3.51-3.6-7.92-5.58-12.41-5.58h0Z"/>
          </g>
          <g>
            <path class="cls-8" d="M506.53,214.39c-2.93,0-5.74-.87-8.12-2.51-1.13-.78-4.15-2.86-1.81-7.06,1.96-3.52,1.63-7.21-1.02-11.27l-.83-1.27,1-1.14c2.96-3.38,6.86-5.24,10.99-5.24,3.27,0,6.4,1.17,9.04,3.38,5.75,4.81,6.72,13.33,2.22,19.42-2.64,3.56-6.92,5.69-11.46,5.69Z"/>
            <path class="cls-3" d="M506.74,187.91c2.71,0,5.43.96,7.75,2.91,4.93,4.12,5.76,11.47,1.89,16.69-2.36,3.19-6.09,4.88-9.85,4.88-2.43,0-4.87-.7-6.99-2.16-1.71-1.18-2.44-2.21-1.2-4.44,2.49-4.48,1.75-8.97-1.09-13.33,2.65-3.02,6.07-4.55,9.49-4.55M506.74,183.91h0c-4.71,0-9.15,2.1-12.5,5.92l-2,2.28,1.65,2.54c2.93,4.5,1.94,7.41.94,9.2-1.47,2.64-2.23,6.46,2.43,9.68,2.72,1.88,5.92,2.87,9.26,2.87,5.17,0,10.06-2.43,13.07-6.5,5.13-6.93,4.02-16.66-2.54-22.14-3.01-2.51-6.57-3.84-10.32-3.84h0Z"/>
          </g>
          <g>
            <path class="cls-8" d="M603.39,214.38c-3.92,0-7.71-1.75-10.4-4.8-4.38-4.98-4.72-12.48-.81-17.82,2.67-3.65,6.76-5.75,11.23-5.75,2.22,0,4.42.51,6.54,1.51l2.31,1.09-1.61,1.98c-6.9,8.51-6.91,11.69-.09,18.88l1.75,1.85-2.21,1.26c-2.06,1.18-4.38,1.8-6.71,1.8Z"/>
            <path class="cls-3" d="M603.41,188.01c1.88,0,3.81.43,5.69,1.32-7.49,9.24-7.49,13.61.01,21.52-1.81,1.03-3.77,1.53-5.72,1.53-3.28,0-6.52-1.42-8.89-4.12-3.79-4.31-4.08-10.69-.7-15.32,2.35-3.21,5.86-4.93,9.61-4.93M603.41,184.01h0c-5.11,0-9.79,2.39-12.84,6.57-4.46,6.1-4.07,14.65.93,20.32,3.06,3.48,7.4,5.48,11.9,5.48,2.68,0,5.35-.71,7.7-2.06l4.42-2.53-3.5-3.7c-3.17-3.35-4.53-5.6-4.53-7.51,0-2.01,1.45-4.71,4.72-8.74l3.21-3.96-4.61-2.18c-2.39-1.13-4.88-1.7-7.39-1.7h0Z"/>
          </g>
          <g>
            <path class="cls-8" d="M476.37,214.34c-2.27,0-4.52-.54-6.68-1.61l-2.6-1.28,2.13-1.98c3.27-3.03,4.93-6.12,4.96-9.2.02-3.1-1.63-6.26-4.91-9.4l-1.99-1.9,2.43-1.3c2.05-1.1,4.35-1.68,6.64-1.68,4.13,0,8.03,1.85,10.69,5.07,4.28,5.17,4.38,12.51.25,17.85-2.68,3.46-6.65,5.44-10.91,5.44Z"/>
            <path class="cls-3" d="M476.34,187.99c3.45,0,6.81,1.51,9.15,4.34,3.66,4.43,3.75,10.78.21,15.35-2.36,3.05-5.74,4.66-9.33,4.66-1.91,0-3.88-.46-5.79-1.4,7.19-6.67,7.71-14.21.07-21.51,1.81-.97,3.77-1.45,5.69-1.45M476.34,183.99h0c-2.62,0-5.24.66-7.58,1.92l-4.86,2.61,3.98,3.81c2.87,2.74,4.31,5.41,4.29,7.94-.02,2.5-1.47,5.11-4.32,7.75l-4.26,3.95,5.21,2.57c2.44,1.2,4.98,1.81,7.56,1.81,4.88,0,9.43-2.26,12.49-6.21,4.71-6.08,4.59-14.45-.29-20.35-3.05-3.68-7.51-5.79-12.23-5.79h0Z"/>
          </g>
          <g>
            <path class="cls-8" d="M449.17,214.22c-1.19,0-2.43-.13-3.7-.39l-4.85-.99,4.17-2.66c4.03-2.56,6.37-6.18,6.44-9.92.06-3.7-2.16-7.29-6.26-10.11l-3.42-2.35,3.96-1.21c1.23-.38,2.52-.57,3.82-.57,4.26,0,8.36,2.08,10.96,5.55,3.56,4.75,3.79,11.3.58,16.29-2.64,4.1-6.8,6.36-11.71,6.36Z"/>
            <path class="cls-3" d="M449.34,188.02c3.58,0,7.09,1.72,9.36,4.75,3.07,4.1,3.27,9.7.5,14.01-2.27,3.53-5.74,5.44-10.03,5.44-1.05,0-2.15-.11-3.3-.35,8.96-5.71,10.55-16.28.24-23.37,1.06-.33,2.15-.48,3.23-.48M449.34,184.02h0c-1.5,0-2.98.22-4.4.66l-7.92,2.43,6.83,4.69c3.58,2.46,5.44,5.37,5.39,8.43-.05,3.06-2.06,6.07-5.51,8.27l-8.35,5.32,9.7,1.97c1.39.28,2.77.43,4.1.43,5.62,0,10.38-2.58,13.4-7.28,3.66-5.69,3.39-13.15-.67-18.57-2.98-3.98-7.67-6.35-12.56-6.35h0Z"/>
          </g>
          <g>
            <path class="cls-8" d="M630.62,214.19c-4.98,0-9.16-2.24-11.77-6.31-3.28-5.12-2.96-11.78.8-16.57,2.62-3.33,6.53-5.24,10.74-5.24,1.38,0,2.77.21,4.12.62l4.39,1.34-3.97,2.31c-4.28,2.48-6.37,5.67-6.39,9.75-.02,4.22,2.07,7.4,6.59,10.01l4.54,2.63-5.14,1.06c-1.34.28-2.65.42-3.91.42Z"/>
            <path class="cls-3" d="M630.39,188.07c1.17,0,2.36.17,3.54.53-4.54,2.63-7.37,6.28-7.39,11.47-.02,5.22,2.73,8.94,7.59,11.75-1.22.25-2.39.37-3.5.37-4.39,0-7.86-1.91-10.09-5.39-2.84-4.43-2.57-10.11.68-14.26,2.24-2.86,5.6-4.48,9.17-4.48M630.39,184.07h0c-4.83,0-9.32,2.19-12.31,6.01-4.28,5.46-4.65,13.04-.91,18.88,2.99,4.67,7.77,7.23,13.46,7.23,1.39,0,2.84-.15,4.31-.46l10.29-2.12-9.09-5.26c-4.98-2.88-5.6-5.93-5.59-8.27,0-2.11.58-5.23,5.4-8.03l7.95-4.61-8.79-2.68c-1.54-.47-3.12-.71-4.7-.71h0Z"/>
          </g>
        </g>
        <g>
          <path class="cls-1" d="M540,13.39c-45.07,0-81.61,36.54-81.61,81.61s36.54,81.61,81.61,81.61,81.61-36.54,81.61-81.61-36.54-81.61-81.61-81.61ZM540.5,155.8c-33.58,0-60.8-27.22-60.8-60.8s27.22-60.8,60.8-60.8,60.8,27.22,60.8,60.8-27.22,60.8-60.8,60.8Z"/>
          <g>
            <path class="cls-4" d="M540,10.39c-17.41.04-34.67,5.42-48.86,15.54s-24.73,23.99-30.66,40.14c-6.09,16.58-6.7,35.15-1.87,52.12s14.36,31.22,27.5,42.02c13.52,11.11,30.14,17.83,47.6,19.16,17.41,1.33,35.15-2.9,50.08-11.96s26.27-21.94,33.24-37.38c7.33-16.26,9.39-34.49,5.88-51.98-3.36-16.74-12.03-32.33-24.36-44.13s-28.34-19.87-45.28-22.47c-4.39-.67-8.81-1.04-13.26-1.05-3.86,0-3.87,5.99,0,6,8.48.02,16.34,1.23,24.49,3.89,7.51,2.44,14.58,6.03,21.21,10.74,12.62,8.97,22.79,22.25,28.1,36.81,5.74,15.73,6.36,32.78,1.81,48.78-4.36,15.32-13.33,28.91-25.71,39.16-1.54,1.28-2.74,2.19-4.47,3.41s-3.36,2.27-5.09,3.31-3.43,1.97-5.2,2.86-3.67,1.76-5.17,2.37c-7.62,3.1-15.8,5.05-23.68,5.65-16.57,1.26-32.93-2.56-47.06-11.14s-24.3-20.36-30.95-34.93-8.6-32.12-5.35-47.99c3.24-15.8,11.16-30.06,22.75-41.15,5.74-5.5,12.05-9.94,19.31-13.58s14.92-6.03,22.99-7.3c3.61-.57,7.98-.88,12-.89s3.87-6.01,0-6Z"/>
            <path class="cls-4" d="M540.5,152.8c-12.06-.03-23.64-3.69-33.6-10.75-9.24-6.55-16.79-16.4-20.66-27.06-2.14-5.88-3.28-11.67-3.5-17.71-.24-6.37.43-12.07,2.16-18.14,3.21-11.3,9.8-21.29,18.97-28.88,2-1.66,4.41-3.35,6.89-4.84,1.27-.76,2.58-1.48,3.9-2.15.64-.32,1.29-.64,1.94-.94s1.34-.6,1.72-.76c5.64-2.3,11.7-3.76,17.45-4.2,12.23-.94,24.19,1.84,34.61,8.13,10,6.04,17.91,14.96,22.85,25.74,1.11,2.42,2.16,5.35,2.96,8.22s1.43,6.02,1.71,8.56c.71,6.21.46,12.57-.72,18.38s-3.2,11.37-6.12,16.61c-2.94,5.28-6.27,9.58-10.63,13.76-8.52,8.16-19.35,13.51-31.21,15.38-1.16.18-2.54.34-4,.45-1.57.12-3.15.18-4.73.18-3.86.01-3.87,6.01,0,6,13.08-.04,26.08-4.06,36.76-11.66,10.62-7.57,18.73-18.14,23.23-30.39s5.03-26.44,1.4-39.2c-3.49-12.29-10.77-23.5-20.64-31.63s-22.67-13.48-35.85-14.53-26.65,2.15-37.95,9.02-19.77,16.5-25,28.11c-5.55,12.31-7.12,26.07-4.45,39.32s9.07,24.32,18.32,33.19,21.29,14.98,34.03,16.95c3.36.52,6.75.81,10.15.82,3.86.01,3.87-5.99,0-6Z"/>
          </g>
        </g>
        <g>
          <g>
            <path class="cls-9" d="M857.1,118.81c1.97,0,3.95.15,5.9-.03,6.41-.58,12.27-2.53,17.57-6.43,2.97-2.18,6.57-3.48,10.22-5.35-2.77-1.42-5.62-2.57-8.11-4.24-2.61-1.75-5-3.89-7.28-6.08-2.68-2.56-5.17-5.32-7.66-8.06-.8-.88-1.36-1.98-2.02-2.98,1.04-.37,2.08-.75,3.4-1.22-1.73-2.73-3.62-5.53-5.3-8.46-.52-.91-.44-2.15-.63-3.24,1.03-.03,2.13-.33,3.07-.06,5.16,1.51,10.01,3.45,11.49,9.5.17.69,1,1.67,1.6,1.73,3.69.41,4.27,3.21,4.69,5.99.27,1.78.36,3.67.08,5.44-1.2,7.55,5.91,11.76,12.54,10.92,2.86-.36,5.78-.45,8.66-.33,2.87.12,5.73.64,9.28,1.07-.91-.63-1.26-.93-1.65-1.15-10.8-6.02-14.95-14.47-13.1-26.73,1.08-7.15,1.02-8.32-.61-14.21,3.19.52,6.66,3.98,7.68,8.63,1.33,6.06,2.38,12.2,3.12,18.36.6,5.01,2.67,8.88,6.63,11.97,6.13,4.78,12.76,7.67,20.77,6.91,6.93-.65,13.93-.69,20.84-1.46,5.59-.63,10.77-2.73,15.32-6.2.54-.41,1.22-.63,1.84-.93.27.24.54.48.82.73-.69.96-1.21,2.12-2.1,2.84-4.4,3.56-9.67,5.01-15.15,5.65-3.82.45-7.71.3-11.55.65-9.69.89-19.38,1.91-29.06,2.89-.74.08-1.49.35-2.22.32-8.23-.33-15.43,2.57-22.58,6.37-8.02,4.27-16.68,4.3-25.34,1.88-3.86-1.08-7.67-2.33-11.51-3.5.12-.39.23-.79.35-1.18Z"/>
            <path class="cls-9" d="M795.02,93.55c-22.25,4.69-39.87-4.46-56.45-18.65,10.54.2,20.54.31,29.96,4.71,6.35,2.97,12.79,5.76,19.11,8.8,9.15,4.4,18.08,4.41,27.14-.42,5.58-2.97,11.43-5.42,17.18-8.63-17.6,2.9-31.22-7.13-46.08-14.13,1.58-.24,3.17-.72,4.75-.69,10.75.23,21.22,2.05,31.35,5.71,2.66.96,5.34,1.94,8.09,2.57,5.31,1.2,10.34,1.13,14.72-3.06,2.24-2.14,5.15-3.58,7.76-5.33l1.02,1.05c-.74,1.06-1.24,2.51-2.25,3.11-11.51,6.95-17.26,18.28-22.93,29.72-4.46,9-10.04,17.03-19.73,21.19-.94.4-1.92.72-3.02,1.13,2.65-6.75,4.4-13.66,7.93-19.5,3.56-5.88,8.88-10.69,12.45-14.83-8.17,2.83-18.12,5.46-27.28,9.78-4.94,2.33-9.28,7.02-12.56,11.59-8.91,12.44-21.11,17.33-36.79,17.88,12.15-9.96,21.21-22.42,36.83-26.1-.21-.48-.42-.96-.64-1.44-5.09,1.09-10.3,1.81-15.22,3.4-3.67,1.19-7.21,3.17-10.39,5.39-11.34,7.91-23.74,9.12-36.81,6.28-4.47-.97-8.84-2.41-13.21-3.79-1.31-.41-2.47-1.34-4.34-2.39,12.96-9.47,25.94-15.77,41.84-11.85,4.19,1.03,8.32,2.32,12.49,3.44,8.62,2.32,16.87-.48,25.2-1.93,3.29-.57,6.56-1.26,9.84-1.9l.03-1.12Z"/>
          </g>
          <g>
            <path class="cls-9" d="M222.9,118.81c-1.97,0-3.95.15-5.9-.03-6.41-.58-12.27-2.53-17.57-6.43-2.97-2.18-6.57-3.48-10.22-5.35,2.77-1.42,5.62-2.57,8.11-4.24,2.61-1.75,5-3.89,7.28-6.08,2.68-2.56,5.17-5.32,7.66-8.06.8-.88,1.36-1.98,2.02-2.98-1.04-.37-2.08-.75-3.4-1.22,1.73-2.73,3.62-5.53,5.3-8.46.52-.91.44-2.15.63-3.24-1.03-.03-2.13-.33-3.07-.06-5.16,1.51-10.01,3.45-11.49,9.5-.17.69-1,1.67-1.6,1.73-3.69.41-4.27,3.21-4.69,5.99-.27,1.78-.36,3.67-.08,5.44,1.2,7.55-5.91,11.76-12.54,10.92-2.86-.36-5.78-.45-8.66-.33-2.87.12-5.73.64-9.28,1.07.91-.63,1.26-.93,1.65-1.15,10.8-6.02,14.95-14.47,13.1-26.73-1.08-7.15-1.02-8.32.61-14.21-3.19.52-6.66,3.98-7.68,8.63-1.33,6.06-2.38,12.2-3.12,18.36-.6,5.01-2.67,8.88-6.63,11.97-6.13,4.78-12.76,7.67-20.77,6.91-6.93-.65-13.93-.69-20.84-1.46-5.59-.63-10.77-2.73-15.32-6.2-.54-.41-1.22-.63-1.84-.93-.27.24-.54.48-.82.73.69.96,1.21,2.12,2.1,2.84,4.4,3.56,9.67,5.01,15.15,5.65,3.82.45,7.71.3,11.55.65,9.69.89,19.38,1.91,29.06,2.89.74.08,1.49.35,2.22.32,8.23-.33,15.43,2.57,22.58,6.37,8.02,4.27,16.68,4.3,25.34,1.88,3.86-1.08,7.67-2.33,11.51-3.5-.12-.39-.23-.79-.35-1.18Z"/>
            <path class="cls-9" d="M284.98,93.55c22.25,4.69,39.87-4.46,56.45-18.65-10.54.2-20.54.31-29.96,4.71-6.35,2.97-12.79,5.76-19.11,8.8-9.15,4.4-18.08,4.41-27.14-.42-5.58-2.97-11.43-5.42-17.18-8.63,17.6,2.9,31.22-7.13,46.08-14.13-1.58-.24-3.17-.72-4.75-.69-10.75.23-21.22,2.05-31.35,5.71-2.66.96-5.34,1.94-8.09,2.57-5.31,1.2-10.34,1.13-14.72-3.06-2.24-2.14-5.15-3.58-7.76-5.33l-1.02,1.05c.74,1.06,1.24,2.51,2.25,3.11,11.51,6.95,17.26,18.28,22.93,29.72,4.46,9,10.04,17.03,19.73,21.19.94.4,1.92.72,3.02,1.13-2.65-6.75-4.4-13.66-7.93-19.5-3.56-5.88-8.88-10.69-12.45-14.83,8.17,2.83,18.12,5.46,27.28,9.78,4.94,2.33,9.28,7.02,12.56,11.59,8.91,12.44,21.11,17.33,36.79,17.88-12.15-9.96-21.21-22.42-36.83-26.1.21-.48.42-.96.64-1.44,5.09,1.09,10.3,1.81,15.22,3.4,3.67,1.19,7.21,3.17,10.39,5.39,11.34,7.91,23.74,9.12,36.81,6.28,4.47-.97,8.84-2.41,13.21-3.79,1.31-.41,2.47-1.34,4.34-2.39-12.96-9.47-25.94-15.77-41.84-11.85-4.19,1.03-8.32,2.32-12.49,3.44-8.62,2.32-16.87-.48-25.2-1.93-3.29-.57-6.56-1.26-9.84-1.9l-.03-1.12Z"/>
          </g>
        </g>
      </g>
    </g>
  </g>
</svg>